<mxfile host="65bd71144e">
    <diagram id="RmVV2D5Ct1qAWE3uK8Pf" name="Page-1">
        <mxGraphModel dx="650" dy="478" grid="1" gridSize="10" guides="1" tooltips="1" connect="1" arrows="1" fold="1" page="1" pageScale="1" pageWidth="827" pageHeight="1169" math="0" shadow="0">
            <root>
                <mxCell id="0"/>
                <mxCell id="1" parent="0"/>
                <mxCell id="3" value="&lt;font style=&quot;font-size: 14px&quot;&gt;visiteur&lt;/font&gt;" style="shape=umlActor;verticalLabelPosition=bottom;verticalAlign=top;html=1;outlineConnect=0;" vertex="1" parent="1">
                    <mxGeometry x="70" y="90" width="30" height="60" as="geometry"/>
                </mxCell>
                <mxCell id="4" value="membre" style="shape=umlActor;verticalLabelPosition=bottom;verticalAlign=top;html=1;outlineConnect=0;fontSize=14;" vertex="1" parent="1">
                    <mxGeometry x="70" y="250" width="30" height="60" as="geometry"/>
                </mxCell>
                <mxCell id="5" value="admin" style="shape=umlActor;verticalLabelPosition=bottom;verticalAlign=top;html=1;outlineConnect=0;fontSize=14;" vertex="1" parent="1">
                    <mxGeometry x="70" y="410" width="30" height="60" as="geometry"/>
                </mxCell>
                <mxCell id="6" value="A" style="swimlane;startSize=0;fontSize=14;gradientColor=none;glass=0;" vertex="1" parent="1">
                    <mxGeometry x="190" y="110" width="590" height="750" as="geometry"/>
                </mxCell>
                <mxCell id="15" value="Visiter le site" style="ellipse;whiteSpace=wrap;html=1;glass=0;fontSize=14;strokeColor=#333333;gradientColor=none;" vertex="1" parent="6">
                    <mxGeometry x="160" y="20" width="180" height="60" as="geometry"/>
                </mxCell>
                <mxCell id="18" value="Ajouter une annonce" style="ellipse;whiteSpace=wrap;html=1;glass=0;fontSize=14;strokeColor=#333333;gradientColor=none;" vertex="1" parent="6">
                    <mxGeometry x="90" y="120" width="190" height="50" as="geometry"/>
                </mxCell>
                <mxCell id="21" value="Modifier son annonce" style="ellipse;whiteSpace=wrap;html=1;glass=0;fontSize=14;strokeColor=#333333;gradientColor=none;" vertex="1" parent="6">
                    <mxGeometry x="90" y="180" width="190" height="50" as="geometry"/>
                </mxCell>
                <mxCell id="23" value="Supprimer son annonce" style="ellipse;whiteSpace=wrap;html=1;glass=0;fontSize=14;strokeColor=#333333;gradientColor=none;" vertex="1" parent="6">
                    <mxGeometry x="90" y="240" width="190" height="50" as="geometry"/>
                </mxCell>
                <mxCell id="29" value="Aimer une annonce" style="ellipse;whiteSpace=wrap;html=1;glass=0;fontSize=14;strokeColor=#333333;gradientColor=none;" vertex="1" parent="6">
                    <mxGeometry x="90" y="300" width="190" height="50" as="geometry"/>
                </mxCell>
                <mxCell id="33" value="Authentification" style="ellipse;whiteSpace=wrap;html=1;glass=0;fontSize=14;strokeColor=#333333;gradientColor=none;" vertex="1" parent="6">
                    <mxGeometry x="370" y="180" width="150" height="80" as="geometry"/>
                </mxCell>
                <mxCell id="35" value="" style="endArrow=none;dashed=1;html=1;fontSize=14;exitX=1;exitY=0.5;exitDx=0;exitDy=0;entryX=-0.013;entryY=0.425;entryDx=0;entryDy=0;entryPerimeter=0;" edge="1" parent="6" source="18" target="33">
                    <mxGeometry width="50" height="50" relative="1" as="geometry">
                        <mxPoint x="310" y="260" as="sourcePoint"/>
                        <mxPoint x="360" y="210" as="targetPoint"/>
                    </mxGeometry>
                </mxCell>
                <mxCell id="37" value="" style="endArrow=none;dashed=1;html=1;fontSize=14;exitX=1;exitY=0.5;exitDx=0;exitDy=0;entryX=-0.013;entryY=0.588;entryDx=0;entryDy=0;entryPerimeter=0;" edge="1" parent="6" source="23" target="33">
                    <mxGeometry width="50" height="50" relative="1" as="geometry">
                        <mxPoint x="310" y="260" as="sourcePoint"/>
                        <mxPoint x="360" y="210" as="targetPoint"/>
                    </mxGeometry>
                </mxCell>
                <mxCell id="38" value="" style="endArrow=none;dashed=1;html=1;fontSize=14;exitX=1;exitY=0.38;exitDx=0;exitDy=0;exitPerimeter=0;entryX=0.067;entryY=0.75;entryDx=0;entryDy=0;entryPerimeter=0;" edge="1" parent="6" source="29" target="33">
                    <mxGeometry width="50" height="50" relative="1" as="geometry">
                        <mxPoint x="310" y="260" as="sourcePoint"/>
                        <mxPoint x="360" y="210" as="targetPoint"/>
                    </mxGeometry>
                </mxCell>
                <mxCell id="39" value="Gerer les utilisateurs" style="ellipse;whiteSpace=wrap;html=1;glass=0;fontSize=14;strokeColor=#333333;gradientColor=none;" vertex="1" parent="6">
                    <mxGeometry x="60" y="400" width="190" height="50" as="geometry"/>
                </mxCell>
                <mxCell id="40" value="Gerer les annonces" style="ellipse;whiteSpace=wrap;html=1;glass=0;fontSize=14;strokeColor=#333333;gradientColor=none;" vertex="1" parent="6">
                    <mxGeometry x="60" y="490" width="190" height="50" as="geometry"/>
                </mxCell>
                <mxCell id="43" value="Supprimer un membre" style="ellipse;whiteSpace=wrap;html=1;glass=0;fontSize=14;strokeColor=#333333;gradientColor=none;" vertex="1" parent="6">
                    <mxGeometry x="300" y="350" width="190" height="50" as="geometry"/>
                </mxCell>
                <mxCell id="44" value="Accepter une annonce" style="ellipse;whiteSpace=wrap;html=1;glass=0;fontSize=14;strokeColor=#333333;gradientColor=none;" vertex="1" parent="6">
                    <mxGeometry x="290" y="465" width="190" height="50" as="geometry"/>
                </mxCell>
                <mxCell id="45" value="" style="endArrow=classic;html=1;fontSize=14;exitX=1;exitY=0.5;exitDx=0;exitDy=0;entryX=0.021;entryY=0.68;entryDx=0;entryDy=0;entryPerimeter=0;" edge="1" parent="6" source="39" target="43">
                    <mxGeometry width="50" height="50" relative="1" as="geometry">
                        <mxPoint x="140" y="380" as="sourcePoint"/>
                        <mxPoint x="190" y="330" as="targetPoint"/>
                    </mxGeometry>
                </mxCell>
                <mxCell id="46" value="" style="endArrow=classic;html=1;fontSize=14;entryX=0;entryY=0.5;entryDx=0;entryDy=0;exitX=1;exitY=0.5;exitDx=0;exitDy=0;" edge="1" parent="6" source="40" target="44">
                    <mxGeometry width="50" height="50" relative="1" as="geometry">
                        <mxPoint x="140" y="380" as="sourcePoint"/>
                        <mxPoint x="190" y="330" as="targetPoint"/>
                    </mxGeometry>
                </mxCell>
                <mxCell id="47" value="Supprimer une annonce" style="ellipse;whiteSpace=wrap;html=1;glass=0;fontSize=14;strokeColor=#333333;gradientColor=none;" vertex="1" parent="6">
                    <mxGeometry x="290" y="530" width="190" height="50" as="geometry"/>
                </mxCell>
                <mxCell id="48" value="" style="endArrow=classic;html=1;fontSize=14;entryX=0;entryY=0.5;entryDx=0;entryDy=0;exitX=1;exitY=0.5;exitDx=0;exitDy=0;" edge="1" parent="6" source="40" target="47">
                    <mxGeometry width="50" height="50" relative="1" as="geometry">
                        <mxPoint x="140" y="480" as="sourcePoint"/>
                        <mxPoint x="190" y="430" as="targetPoint"/>
                    </mxGeometry>
                </mxCell>
                <mxCell id="49" value="Ajouter une annonce" style="ellipse;whiteSpace=wrap;html=1;glass=0;fontSize=14;strokeColor=#333333;gradientColor=none;" vertex="1" parent="6">
                    <mxGeometry x="60" y="570" width="190" height="50" as="geometry"/>
                </mxCell>
                <mxCell id="70" value="Modifier l'annonce" style="ellipse;whiteSpace=wrap;html=1;glass=0;fontSize=14;strokeColor=#333333;gradientColor=none;" vertex="1" parent="6">
                    <mxGeometry x="280" y="590" width="190" height="50" as="geometry"/>
                </mxCell>
                <mxCell id="91" value="supprimer" style="ellipse;whiteSpace=wrap;html=1;glass=0;fontSize=14;strokeColor=#333333;gradientColor=none;" vertex="1" parent="6">
                    <mxGeometry x="280" y="650" width="190" height="50" as="geometry"/>
                </mxCell>
                <mxCell id="92" value="" style="endArrow=classic;html=1;fontSize=14;entryX=0;entryY=0.5;entryDx=0;entryDy=0;exitX=1;exitY=0.5;exitDx=0;exitDy=0;" edge="1" parent="6" source="49" target="70">
                    <mxGeometry width="50" height="50" relative="1" as="geometry">
                        <mxPoint x="130" y="530" as="sourcePoint"/>
                        <mxPoint x="180" y="480" as="targetPoint"/>
                    </mxGeometry>
                </mxCell>
                <mxCell id="93" value="" style="endArrow=classic;html=1;fontSize=14;entryX=0;entryY=0.5;entryDx=0;entryDy=0;exitX=1;exitY=0.5;exitDx=0;exitDy=0;" edge="1" parent="6" source="49" target="91">
                    <mxGeometry width="50" height="50" relative="1" as="geometry">
                        <mxPoint x="130" y="530" as="sourcePoint"/>
                        <mxPoint x="180" y="480" as="targetPoint"/>
                    </mxGeometry>
                </mxCell>
                <mxCell id="36" value="" style="endArrow=none;dashed=1;html=1;fontSize=14;exitX=1;exitY=0.5;exitDx=0;exitDy=0;entryX=0;entryY=0.5;entryDx=0;entryDy=0;" edge="1" parent="6" source="21" target="33">
                    <mxGeometry width="50" height="50" relative="1" as="geometry">
                        <mxPoint x="300" y="180" as="sourcePoint"/>
                        <mxPoint x="350" y="140" as="targetPoint"/>
                    </mxGeometry>
                </mxCell>
                <mxCell id="94" value="" style="endArrow=none;dashed=1;html=1;fontSize=14;entryX=1;entryY=1;entryDx=0;entryDy=0;exitX=1;exitY=0.5;exitDx=0;exitDy=0;" edge="1" parent="6" source="43" target="33">
                    <mxGeometry width="50" height="50" relative="1" as="geometry">
                        <mxPoint x="340" y="430" as="sourcePoint"/>
                        <mxPoint x="390" y="380" as="targetPoint"/>
                        <Array as="points">
                            <mxPoint x="520" y="350"/>
                        </Array>
                    </mxGeometry>
                </mxCell>
                <mxCell id="95" value="" style="endArrow=none;dashed=1;html=1;fontSize=14;entryX=1.013;entryY=0.613;entryDx=0;entryDy=0;exitX=1;exitY=0.5;exitDx=0;exitDy=0;entryPerimeter=0;" edge="1" parent="6" source="44" target="33">
                    <mxGeometry width="50" height="50" relative="1" as="geometry">
                        <mxPoint x="500" y="480" as="sourcePoint"/>
                        <mxPoint x="508.03300858899115" y="353.2842712474619" as="targetPoint"/>
                        <Array as="points">
                            <mxPoint x="530" y="455"/>
                        </Array>
                    </mxGeometry>
                </mxCell>
                <mxCell id="96" value="" style="endArrow=none;dashed=1;html=1;fontSize=14;entryX=0.687;entryY=1.013;entryDx=0;entryDy=0;exitX=1;exitY=0.5;exitDx=0;exitDy=0;entryPerimeter=0;" edge="1" parent="6" source="47" target="33">
                    <mxGeometry width="50" height="50" relative="1" as="geometry">
                        <mxPoint x="490" y="550" as="sourcePoint"/>
                        <mxPoint x="531.95" y="289.03999999999996" as="targetPoint"/>
                        <Array as="points">
                            <mxPoint x="540" y="515"/>
                        </Array>
                    </mxGeometry>
                </mxCell>
                <mxCell id="97" value="" style="endArrow=none;dashed=1;html=1;fontSize=14;entryX=0.5;entryY=1;entryDx=0;entryDy=0;exitX=1;exitY=0.5;exitDx=0;exitDy=0;" edge="1" parent="6" source="70" target="33">
                    <mxGeometry width="50" height="50" relative="1" as="geometry">
                        <mxPoint x="550" y="610" as="sourcePoint"/>
                        <mxPoint x="543.05" y="316.03999999999996" as="targetPoint"/>
                        <Array as="points">
                            <mxPoint x="520" y="600"/>
                            <mxPoint x="580" y="580"/>
                        </Array>
                    </mxGeometry>
                </mxCell>
                <mxCell id="99" value="" style="endArrow=none;dashed=1;html=1;fontSize=14;entryX=0.927;entryY=0.838;entryDx=0;entryDy=0;exitX=1;exitY=0.5;exitDx=0;exitDy=0;entryPerimeter=0;" edge="1" parent="6" source="91" target="33">
                    <mxGeometry width="50" height="50" relative="1" as="geometry">
                        <mxPoint x="550" y="650" as="sourcePoint"/>
                        <mxPoint x="525" y="295" as="targetPoint"/>
                        <Array as="points">
                            <mxPoint x="580" y="640"/>
                            <mxPoint x="590" y="640"/>
                        </Array>
                    </mxGeometry>
                </mxCell>
                <mxCell id="8" value="" style="endArrow=classic;html=1;fontSize=14;" edge="1" parent="1">
                    <mxGeometry width="50" height="50" relative="1" as="geometry">
                        <mxPoint x="84.5" y="400" as="sourcePoint"/>
                        <mxPoint x="84.5" y="340" as="targetPoint"/>
                    </mxGeometry>
                </mxCell>
                <mxCell id="9" value="" style="endArrow=classic;html=1;fontSize=14;" edge="1" parent="1">
                    <mxGeometry width="50" height="50" relative="1" as="geometry">
                        <mxPoint x="84.5" y="240" as="sourcePoint"/>
                        <mxPoint x="84.5" y="180" as="targetPoint"/>
                    </mxGeometry>
                </mxCell>
                <mxCell id="16" value="" style="endArrow=classic;html=1;fontSize=14;exitX=0.5;exitY=0.5;exitDx=0;exitDy=0;exitPerimeter=0;entryX=0;entryY=0.5;entryDx=0;entryDy=0;" edge="1" parent="1" source="3" target="15">
                    <mxGeometry width="50" height="50" relative="1" as="geometry">
                        <mxPoint x="300" y="240" as="sourcePoint"/>
                        <mxPoint x="350" y="190" as="targetPoint"/>
                    </mxGeometry>
                </mxCell>
                <mxCell id="17" value="" style="endArrow=classic;html=1;fontSize=14;exitX=0.5;exitY=0.5;exitDx=0;exitDy=0;exitPerimeter=0;" edge="1" parent="1" source="4" target="18">
                    <mxGeometry width="50" height="50" relative="1" as="geometry">
                        <mxPoint x="110" y="280" as="sourcePoint"/>
                        <mxPoint x="280" y="280" as="targetPoint"/>
                    </mxGeometry>
                </mxCell>
                <mxCell id="20" value="" style="endArrow=classic;html=1;fontSize=14;exitX=0.5;exitY=0.5;exitDx=0;exitDy=0;exitPerimeter=0;" edge="1" parent="1" source="4" target="21">
                    <mxGeometry width="50" height="50" relative="1" as="geometry">
                        <mxPoint x="130" y="280" as="sourcePoint"/>
                        <mxPoint x="338.7579790684332" y="231.5383262876851" as="targetPoint"/>
                    </mxGeometry>
                </mxCell>
                <mxCell id="22" value="" style="endArrow=classic;html=1;fontSize=14;exitX=0.5;exitY=0.5;exitDx=0;exitDy=0;exitPerimeter=0;entryX=0;entryY=0.5;entryDx=0;entryDy=0;" edge="1" parent="1" source="4" target="23">
                    <mxGeometry width="50" height="50" relative="1" as="geometry">
                        <mxPoint x="250" y="80" as="sourcePoint"/>
                        <mxPoint x="350" y="190" as="targetPoint"/>
                    </mxGeometry>
                </mxCell>
                <mxCell id="30" value="" style="endArrow=classic;html=1;fontSize=14;entryX=0;entryY=0.5;entryDx=0;entryDy=0;" edge="1" parent="1" source="4" target="29">
                    <mxGeometry width="50" height="50" relative="1" as="geometry">
                        <mxPoint x="200" y="380" as="sourcePoint"/>
                        <mxPoint x="385" y="435" as="targetPoint"/>
                    </mxGeometry>
                </mxCell>
                <mxCell id="41" value="" style="endArrow=classic;html=1;fontSize=14;exitX=0.5;exitY=0.5;exitDx=0;exitDy=0;exitPerimeter=0;entryX=0;entryY=0.5;entryDx=0;entryDy=0;" edge="1" parent="1" source="5" target="39">
                    <mxGeometry width="50" height="50" relative="1" as="geometry">
                        <mxPoint x="420" y="460" as="sourcePoint"/>
                        <mxPoint x="470" y="410" as="targetPoint"/>
                    </mxGeometry>
                </mxCell>
                <mxCell id="42" value="" style="endArrow=classic;html=1;fontSize=14;entryX=0;entryY=0.5;entryDx=0;entryDy=0;" edge="1" parent="1" target="40">
                    <mxGeometry width="50" height="50" relative="1" as="geometry">
                        <mxPoint x="90" y="440" as="sourcePoint"/>
                        <mxPoint x="370" y="410" as="targetPoint"/>
                    </mxGeometry>
                </mxCell>
                <mxCell id="50" value="" style="endArrow=classic;html=1;fontSize=14;entryX=0;entryY=0.5;entryDx=0;entryDy=0;" edge="1" parent="1" source="5" target="49">
                    <mxGeometry width="50" height="50" relative="1" as="geometry">
                        <mxPoint x="320" y="550" as="sourcePoint"/>
                        <mxPoint x="370" y="500" as="targetPoint"/>
                    </mxGeometry>
                </mxCell>
            </root>
        </mxGraphModel>
    </diagram>
</mxfile>